<?xml version="1.0" encoding="UTF-8"?>
<svg xmlns="http://www.w3.org/2000/svg" xmlns:xlink="http://www.w3.org/1999/xlink" width="64px" height="64px" viewBox="0 0 64 64" version="1.1">
<g id="surface1">
<path style=" stroke:none;fill-rule:nonzero;fill:rgb(5.882353%,5.882353%,5.882353%);fill-opacity:1;" d="M 32 0 C 30.527344 0 29.332031 1.195312 29.332031 2.667969 L 29.332031 8 C 29.332031 9.472656 30.527344 10.667969 32 10.667969 C 33.472656 10.667969 34.667969 9.472656 34.667969 8 L 34.667969 2.667969 C 34.667969 1.195312 33.472656 0 32 0 Z M 32 0 "/>
<path style=" stroke:none;fill-rule:evenodd;fill:rgb(5.882353%,5.882353%,5.882353%);fill-opacity:1;" d="M 32 48 C 40.835938 48 48 40.835938 48 32 C 48 23.164062 40.835938 16 32 16 C 23.164062 16 16 23.164062 16 32 C 16 40.835938 23.164062 48 32 48 Z M 24.574219 39.425781 C 22.671875 37.527344 21.496094 34.898438 21.496094 32 C 21.496094 26.199219 26.199219 21.496094 32 21.496094 C 34.898438 21.496094 37.527344 22.671875 39.425781 24.574219 Z M 24.574219 39.425781 "/>
<path style=" stroke:none;fill-rule:nonzero;fill:rgb(5.882353%,5.882353%,5.882353%);fill-opacity:1;" d="M 50.855469 9.371094 C 51.898438 8.332031 53.585938 8.332031 54.628906 9.371094 C 55.667969 10.414062 55.667969 12.101562 54.628906 13.144531 L 50.855469 16.914062 C 49.816406 17.957031 48.125 17.957031 47.085938 16.914062 C 46.042969 15.875 46.042969 14.183594 47.085938 13.144531 Z M 50.855469 9.371094 "/>
<path style=" stroke:none;fill-rule:nonzero;fill:rgb(5.882353%,5.882353%,5.882353%);fill-opacity:1;" d="M 0 32 C 0 33.472656 1.195312 34.667969 2.667969 34.667969 L 8 34.667969 C 9.472656 34.667969 10.667969 33.472656 10.667969 32 C 10.667969 30.527344 9.472656 29.332031 8 29.332031 L 2.667969 29.332031 C 1.195312 29.332031 0 30.527344 0 32 Z M 0 32 "/>
<path style=" stroke:none;fill-rule:nonzero;fill:rgb(5.882353%,5.882353%,5.882353%);fill-opacity:1;" d="M 9.371094 13.144531 C 8.332031 12.101562 8.332031 10.414062 9.371094 9.371094 C 10.414062 8.332031 12.101562 8.332031 13.144531 9.371094 L 16.914062 13.144531 C 17.957031 14.183594 17.957031 15.875 16.914062 16.914062 C 15.875 17.957031 14.183594 17.957031 13.144531 16.914062 Z M 9.371094 13.144531 "/>
<path style=" stroke:none;fill-rule:nonzero;fill:rgb(5.882353%,5.882353%,5.882353%);fill-opacity:1;" d="M 32 53.332031 C 30.527344 53.332031 29.332031 54.527344 29.332031 56 L 29.332031 61.332031 C 29.332031 62.804688 30.527344 64 32 64 C 33.472656 64 34.667969 62.804688 34.667969 61.332031 L 34.667969 56 C 34.667969 54.527344 33.472656 53.332031 32 53.332031 Z M 32 53.332031 "/>
<path style=" stroke:none;fill-rule:nonzero;fill:rgb(5.882353%,5.882353%,5.882353%);fill-opacity:1;" d="M 13.144531 47.085938 C 14.183594 46.042969 15.875 46.042969 16.914062 47.085938 C 17.957031 48.125 17.957031 49.816406 16.914062 50.855469 L 13.144531 54.628906 C 12.101562 55.667969 10.414062 55.667969 9.371094 54.628906 C 8.332031 53.585938 8.332031 51.898438 9.371094 50.855469 Z M 13.144531 47.085938 "/>
<path style=" stroke:none;fill-rule:nonzero;fill:rgb(5.882353%,5.882353%,5.882353%);fill-opacity:1;" d="M 53.332031 32 C 53.332031 33.472656 54.527344 34.667969 56 34.667969 L 61.332031 34.667969 C 62.804688 34.667969 64 33.472656 64 32 C 64 30.527344 62.804688 29.332031 61.332031 29.332031 L 56 29.332031 C 54.527344 29.332031 53.332031 30.527344 53.332031 32 Z M 53.332031 32 "/>
<path style=" stroke:none;fill-rule:nonzero;fill:rgb(5.882353%,5.882353%,5.882353%);fill-opacity:1;" d="M 47.085938 50.855469 C 46.042969 49.816406 46.042969 48.125 47.085938 47.085938 C 48.125 46.042969 49.816406 46.042969 50.855469 47.085938 L 54.628906 50.855469 C 55.667969 51.898438 55.667969 53.585938 54.628906 54.628906 C 53.585938 55.667969 51.898438 55.667969 50.855469 54.628906 Z M 47.085938 50.855469 "/>
</g>
</svg>
