<?xml version="1.0" encoding="UTF-8"?>
<svg xmlns="http://www.w3.org/2000/svg" xmlns:xlink="http://www.w3.org/1999/xlink" width="64px" height="64px" viewBox="0 0 64 64" version="1.1">
<g id="surface1">
<path style=" stroke:none;fill-rule:nonzero;fill:rgb(0%,0%,0%);fill-opacity:1;" d="M 54.738281 9.257812 C 49.054688 3.375 40.765625 0 32 0 C 23.234375 0 14.945312 3.375 9.261719 9.257812 C 3.949219 14.757812 1.175781 22.113281 1.445312 29.96875 L 2.273438 40.453125 C 3.027344 51.046875 9.175781 52.191406 11.785156 52.191406 C 12.730469 52.191406 13.726562 52.054688 14.738281 51.792969 C 14.875 52.785156 14.863281 54.523438 14.851562 55.878906 L 14.84375 57.761719 C 14.824219 59.128906 14.796875 61.199219 16.246094 62.667969 C 16.847656 63.277344 17.941406 64 19.746094 64 L 44.253906 64 C 46.058594 64 47.152344 63.277344 47.753906 62.667969 C 49.199219 61.199219 49.175781 59.132812 49.15625 57.761719 L 49.144531 55.882812 C 49.136719 54.527344 49.125 52.785156 49.261719 51.792969 C 50.285156 52.058594 51.273438 52.191406 52.214844 52.191406 C 54.824219 52.191406 60.972656 51.046875 61.726562 40.472656 L 62.546875 30.078125 L 62.554688 29.96875 C 62.824219 22.113281 60.050781 14.757812 54.738281 9.257812 Z M 57.496094 29.738281 L 56.679688 40.09375 C 56.347656 44.761719 54.84375 47.128906 52.214844 47.128906 C 51.609375 47.128906 50.933594 47.015625 50.179688 46.792969 C 48.378906 46.273438 46.816406 46.621094 45.714844 47.730469 C 44.039062 49.417969 44.058594 52.144531 44.085938 55.917969 L 44.09375 57.828125 C 44.097656 58.140625 44.105469 58.601562 44.078125 58.9375 L 38.734375 58.9375 L 38.734375 52.683594 L 34.683594 52.683594 L 34.683594 58.9375 L 29.316406 58.9375 L 29.316406 52.683594 L 25.265625 52.683594 L 25.265625 58.9375 L 19.921875 58.9375 C 19.894531 58.601562 19.902344 58.140625 19.90625 57.824219 L 19.914062 55.914062 C 19.941406 52.144531 19.960938 49.417969 18.285156 47.730469 C 17.1875 46.625 15.664062 46.261719 13.800781 46.800781 C 13.066406 47.019531 12.390625 47.128906 11.785156 47.128906 C 9.15625 47.128906 7.65625 44.761719 7.320312 40.074219 L 6.503906 29.738281 C 6.296875 23.289062 8.566406 17.265625 12.902344 12.777344 C 17.640625 7.875 24.601562 5.0625 32 5.0625 C 39.398438 5.0625 46.359375 7.875 51.097656 12.777344 C 55.433594 17.265625 57.707031 23.289062 57.496094 29.738281 Z M 57.496094 29.738281 "/>
<path style=" stroke:none;fill-rule:nonzero;fill:rgb(0%,0%,0%);fill-opacity:1;" d="M 32 38.707031 C 30.785156 38.707031 28.109375 44.542969 27.621094 45.515625 C 27.136719 46.488281 28.109375 47.949219 29.570312 47.460938 C 31.027344 46.976562 32 45.761719 32 45.761719 C 32 45.761719 32.972656 46.976562 34.433594 47.460938 C 35.890625 47.949219 36.863281 46.488281 36.378906 45.515625 C 35.890625 44.542969 33.21875 38.707031 32 38.707031 Z M 32 38.707031 "/>
<path style=" stroke:none;fill-rule:nonzero;fill:rgb(0%,0%,0%);fill-opacity:1;" d="M 21.449219 22.910156 C 17.585938 22.503906 14.125 25.308594 13.71875 29.171875 L 13.195312 32.851562 C 12.789062 36.714844 15.59375 40.171875 19.457031 40.578125 C 23.320312 40.984375 26.78125 38.179688 27.1875 34.316406 L 27.710938 30.636719 C 28.113281 26.773438 25.3125 23.316406 21.449219 22.910156 Z M 21.449219 22.910156 "/>
<path style=" stroke:none;fill-rule:nonzero;fill:rgb(0%,0%,0%);fill-opacity:1;" d="M 50.28125 29.171875 C 49.875 25.308594 46.414062 22.503906 42.550781 22.910156 C 38.6875 23.316406 35.886719 26.773438 36.289062 30.636719 L 36.8125 34.316406 C 37.21875 38.179688 40.679688 40.984375 44.542969 40.578125 C 48.40625 40.171875 51.210938 36.714844 50.804688 32.851562 Z M 50.28125 29.171875 "/>
</g>
</svg>
