<?xml version="1.0" encoding="UTF-8"?>
<svg xmlns="http://www.w3.org/2000/svg" xmlns:xlink="http://www.w3.org/1999/xlink" width="64px" height="64px" viewBox="0 0 64 64" version="1.1">
<g id="surface1">
<path style="fill:none;stroke-width:2;stroke-linecap:round;stroke-linejoin:round;stroke:rgb(0%,0%,0%);stroke-opacity:1;stroke-miterlimit:4;" d="M 16.000488 9.499512 L 21 14.500488 M 21 9.499512 L 16.000488 14.500488 M 4.599609 9 L 5.500488 9 C 6.052734 9 6.328125 9 6.583008 8.931152 C 6.808594 8.871094 7.022461 8.77002 7.214355 8.635254 C 7.431152 8.48291 7.606934 8.271973 7.959961 7.848633 L 10.584961 4.697754 C 11.021484 4.174805 11.238281 3.914062 11.428711 3.88623 C 11.594238 3.862793 11.759766 3.922852 11.871094 4.045898 C 12 4.189453 12 4.529297 12 5.210449 L 12 18.791016 C 12 19.470703 12 19.812012 11.871094 19.954102 C 11.759766 20.077148 11.594238 20.137207 11.428711 20.11377 C 11.238281 20.087402 11.021484 19.825195 10.584961 19.302246 L 7.959961 16.151367 C 7.606934 15.728027 7.431152 15.51709 7.214355 15.364746 C 7.022461 15.22998 6.808594 15.128906 6.583008 15.068848 C 6.328125 15 6.052734 15 5.500488 15 L 4.599609 15 C 4.040039 15 3.760254 15 3.546387 14.891602 C 3.357422 14.794922 3.205078 14.642578 3.108398 14.453613 C 3 14.239746 3 13.959961 3 13.400391 L 3 10.599609 C 3 10.040039 3 9.760254 3.108398 9.546387 C 3.205078 9.357422 3.357422 9.205078 3.546387 9.108398 C 3.760254 9 4.040039 9 4.599609 9 Z M 4.599609 9 " transform="matrix(2.666667,0,0,2.666667,0,0)"/>
</g>
</svg>
